<svg id="Layer_1" data-name="Layer 1" xmlns="http://www.w3.org/2000/svg" viewBox="0 0 965.78 178.1"><defs><style>.cls-1{fill:#e8eddf;}</style></defs><g id="Layer_2" data-name="Layer 2"><g id="Layer_1-2" data-name="Layer 1-2"><g id="h_logo" data-name="h logo"><path class="cls-1" d="M248.78,40.55v1.86H236.52V86.1H275V42.41H262.76V40.55h43.82v1.86H294.33v91.1h12.25v1.86H262.76v-1.86H275V88H236.52v45.55h12.26v1.86H205v-1.86h12.25V42.41H205V40.55Z"/><path class="cls-1" d="M333.88,102v7.72c0,10.39,1.07,25.7,16.91,25.7A20,20,0,0,0,370.5,120l1.87.67c-3.2,10.66-11.72,16.65-23.57,16.65-19.05,0-32.9-12.12-32.9-30.63,0-16,14.38-30.24,31-30.24,14.12,0,26.24,9.06,26.24,25.58Zm21.31-1.87V90.76c0-8.66-2.8-12.52-8.79-12.52-10.26,0-12.25,9.59-12.52,21.84Z"/><path class="cls-1" d="M449.22,133.51h8.92v1.86H424.71v-1.86H433V91c0-6.52-3.06-10.38-8.39-10.38-4.8,0-8.66,2.26-11.72,6.79s-4.4,10.12-4.4,16.91v29.17h8.39v1.86H383.43v-1.86h8.79V80.1h-8.79V78.24H408.2V91.56h.26c4.27-9.86,12-14.52,22.25-14.52,11.72,0,18.51,7.86,18.51,18.51Z"/><path class="cls-1" d="M527.8,39.35v94.16h8.79v1.86H511.81v-9.85h-.26c-2.8,7.32-8.13,11.72-15.72,11.72-17.18,0-29-14.52-29-30.5,0-11.45,6.39-21.18,12.78-25.57a27.65,27.65,0,0,1,16.25-4.8c8,0,12.79,4.13,15.45,11.19h.27V41.21h-9.06V39.35ZM484.8,109c.13,7.06.53,13.72,1.46,17.32,1.34,5.06,3.87,9.05,9.59,9.05,13.32,0,15.72-13.31,15.72-28.5,0-19.18-4.66-28.63-14.78-28.63-8.26,0-10.93,6-11.86,21.57-.15,2.4-.15,5.73-.15,9.19Z"/><path class="cls-1" d="M563.36,102v7.72c0,10.39,1.06,25.7,16.91,25.7A20,20,0,0,0,600,119.92l1.87.67c-3.2,10.66-11.73,16.65-23.58,16.65-19,0-32.89-12.12-32.89-30.63,0-16,14.38-30.24,31-30.24,14.12,0,26.24,9.06,26.24,25.58Zm21.3-1.87V90.76c0-8.66-2.79-12.52-8.79-12.52-10.25,0-12.25,9.59-12.51,21.84Z"/><path class="cls-1" d="M659.25,96.88c-4.4,0-8.13-1.59-8.13-6,0-1.86.94-4.26.94-6.53,0-1.59-.67-3.33-3.07-3.33-4.66,0-11.32,8.8-11.32,17.59V133.5h10.52v1.86H612.77V133.5h8.65V80.1h-8.65V78.24h24.64V89.43h.26c3.2-6.8,8.26-12.39,17.18-12.39,7.46,0,12.52,4.26,12.52,11.32C667.37,93.69,665,96.88,659.25,96.88Z"/><path class="cls-1" d="M711.59,78h1.86V94.22h-1.73c-4.79-12.92-9.85-16-17.71-16-6.66,0-11.72,3.73-11.72,9.19,0,7.46,8.12,9,21.44,13.58,7.72,2.67,14.25,7.73,14.25,17,0,11.06-10.25,19.18-22.77,19.18-6.13,0-15.85-3.73-18.65-3.73-1.46,0-1.86.4-2.4,1.86H672.3V116.06h1.86c5.86,15.45,11.86,19.31,20.51,19.31,9.06,0,11.86-4.12,11.86-10.65,0-8.39-13.59-10.39-22.24-14.25-6.13-2.67-11.19-7.06-11.19-15,0-10.66,9.19-19,21.84-19,6.13,0,12.39,3.33,14.12,3.33A2.25,2.25,0,0,0,711.59,78Z"/><path class="cls-1" d="M760.2,137.24c-18,0-32.5-13.59-32.5-30.5s14.65-30.37,32.5-30.37S792.7,90,792.7,106.74,778.18,137.24,760.2,137.24ZM773.12,125c1.46-4.93,1.6-12.12,1.6-22.11,0-12.52-1.87-24.64-14.65-24.64-13.06,0-14.39,12.78-14.39,28.5,0,15.18.93,28.63,14.52,28.63C765.93,135.37,770.72,133.11,773.12,125Z"/><path class="cls-1" d="M868.61,133.51h8.92v1.86H844.1v-1.86h8.26V91c0-6.52-3.06-10.38-8.39-10.38-4.79,0-8.66,2.26-11.72,6.79s-4.39,10.12-4.39,16.91v29.17h8.39v1.86H802.82v-1.86h8.79V80.1h-8.79V78.24h24.77V91.56h.27C832.12,81.7,839.84,77,850.1,77c11.72,0,18.51,7.86,18.51,18.51Z"/><path class="cls-1" d="M926.28,78h1.86V94.22h-1.73c-4.79-12.92-9.85-16-17.71-16C902,78.24,897,82,897,87.43c0,7.46,8.12,9,21.44,13.58,7.72,2.67,14.25,7.73,14.25,17,0,11.06-10.25,19.18-22.77,19.18-6.13,0-15.85-3.73-18.65-3.73-1.46,0-1.86.4-2.4,1.86H887V116.06h1.86c5.86,15.45,11.86,19.31,20.51,19.31,9.06,0,11.86-4.12,11.86-10.65,0-8.39-13.59-10.39-22.24-14.25-6.13-2.67-11.19-7.06-11.19-15,0-10.66,9.19-19,21.84-19,6.13,0,12.39,3.33,14.12,3.33A2.26,2.26,0,0,0,926.28,78Z"/><path class="cls-1" d="M965.78,178.1H174.44V0H965.78ZM178.1,174.44h784V3.66h-784Z"/><path class="cls-1" d="M178.1,178.1H0V0H178.1ZM3.66,174.44H174.44V3.66H3.66Z"/><polygon class="cls-1" points="127.75 89.06 127.75 136.41 109.19 136.41 109.19 89.06 120.04 89.06 127.75 89.06"/><polygon class="cls-1" points="127.75 43.38 127.75 89.06 120.04 89.06 109.19 89.06 109.19 43.38 127.75 43.38"/><polygon class="cls-1" points="70.83 89.06 70.83 136.41 51 136.41 51 89.06 61.45 89.06 70.83 89.06"/><polygon class="cls-1" points="70.83 43.38 70.83 89.06 61.45 89.06 51 89.06 51 43.38 70.83 43.38"/><path class="cls-1" d="M89.05,160.51A71.47,71.47,0,0,1,50,29.2a70.47,70.47,0,0,1,20.29-9.11,71.46,71.46,0,0,1,71.15,117.54,71.3,71.3,0,0,1-52.39,22.86Zm0-139.26A67.81,67.81,0,0,0,71.3,154.5a68.44,68.44,0,0,0,37.36-.54,66.79,66.79,0,0,0,18.07-8.53,67.82,67.82,0,0,0,0-112.76,66.79,66.79,0,0,0-18.07-8.53A67.86,67.86,0,0,0,89.05,21.25Z"/><polygon class="cls-1" points="50.55 147.44 50.55 30.33 51.46 30.33 51.46 147.37 50.55 147.44"/><rect class="cls-1" x="70.37" y="22.05" width="0.92" height="134.21"/><polygon class="cls-1" points="108.73 155.74 108.73 22.05 109.64 22.05 109.64 155.72 108.73 155.74"/><rect class="cls-1" x="127.29" y="30.33" width="0.92" height="117.12"/><rect class="cls-1" x="120.04" y="88.6" width="38.65" height="0.92"/><rect class="cls-1" x="19.41" y="88.6" width="42.04" height="0.92"/><rect class="cls-1" x="61.45" y="87.23" width="58.59" height="3.66"/></g></g></g></svg>