<svg xmlns="http://www.w3.org/2000/svg" viewBox="0 0 419.69 419.6"><defs><style>.cls-1{fill:#e7e6e6;}</style></defs><g id="Layer_2" data-name="Layer 2"><g id="Layer_1-2" data-name="Layer 1"><polygon class="cls-1" points="323.45 209.81 323.45 348.83 268.96 348.83 268.96 209.81 300.82 209.81 323.45 209.81"/><polygon class="cls-1" points="323.45 75.68 323.45 209.81 300.82 209.81 268.96 209.81 268.96 75.68 323.45 75.68"/><polygon class="cls-1" points="156.32 209.81 156.32 348.83 98.13 348.83 98.13 209.81 128.81 209.81 156.32 209.81"/><polygon class="cls-1" points="156.32 75.68 156.32 209.81 128.81 209.81 98.13 209.81 98.13 75.68 156.32 75.68"/><path class="cls-1" d="M209.85,419.6A209.83,209.83,0,0,1,95.18,34.05,207.24,207.24,0,0,1,154.76,7.29a211.66,211.66,0,0,1,115.75,1.6,209.88,209.88,0,0,1,55.92,375.36,207.76,207.76,0,0,1-55.93,26.42A210.08,210.08,0,0,1,209.85,419.6Zm0-408.89A198.47,198.47,0,0,0,101.07,43,201.12,201.12,0,0,0,59.56,79.21,199.08,199.08,0,0,0,267.41,400.37a196.16,196.16,0,0,0,53-25.06,199.1,199.1,0,0,0,0-331.06,196.44,196.44,0,0,0-53.05-25.06A199.16,199.16,0,0,0,209.85,10.71Z"/><polygon class="cls-1" points="96.78 381.23 96.78 37.36 99.47 37.36 99.47 381.01 96.78 381.23"/><rect class="cls-1" x="154.98" y="13.07" width="2.69" height="394.06"/><polygon class="cls-1" points="267.61 405.57 267.61 13.07 270.3 13.07 270.3 405.52 267.61 405.57"/><rect class="cls-1" x="322.1" y="37.36" width="2.69" height="343.87"/><rect class="cls-1" x="300.82" y="208.46" width="113.49" height="2.69"/><rect class="cls-1" x="5.37" y="208.46" width="123.43" height="2.69"/><rect class="cls-1" x="128.81" y="204.43" width="172.02" height="10.75"/><rect class="cls-1" x="54.7" y="74.33" width="311.46" height="2.69"/><polygon class="cls-1" points="359.83 350.17 58.36 350.17 58.36 347.48 359.72 347.48 359.83 350.17"/></g></g></svg>