<svg xmlns="http://www.w3.org/2000/svg" viewBox="0 0 142.94 142.91"><defs><style>.cls-1{fill:#333533;}</style></defs><g id="Layer_2" data-name="Layer 2"><g id="Layer_1-2" data-name="Layer 1"><g id="Layer_2-2" data-name="Layer 2"><g id="Layer_1-2-2" data-name="Layer 1-2"><g id="h_logo" data-name="h logo"><polygon class="cls-1" points="110.17 71.46 110.17 118.81 91.61 118.81 91.61 71.46 102.46 71.46 110.17 71.46"/><polygon class="cls-1" points="110.17 25.78 110.17 71.46 102.46 71.46 91.61 71.46 91.61 25.78 110.17 25.78"/><polygon class="cls-1" points="53.25 71.46 53.25 118.81 33.42 118.81 33.42 71.46 43.87 71.46 53.25 71.46"/><polygon class="cls-1" points="53.25 25.78 53.25 71.46 43.87 71.46 33.42 71.46 33.42 25.78 53.25 25.78"/><path class="cls-1" d="M71.47,142.91a71.47,71.47,0,0,1-39-131.31A70.47,70.47,0,0,1,52.71,2.49a71.45,71.45,0,1,1,18.76,140.4Zm0-139.26A67.81,67.81,0,0,0,53.72,136.9a68.54,68.54,0,0,0,37.36-.54,67.09,67.09,0,0,0,18.07-8.53,67.81,67.81,0,0,0,0-112.76A66.79,66.79,0,0,0,91.08,6.54,67.52,67.52,0,0,0,71.47,3.65Z"/><polygon class="cls-1" points="32.97 129.84 32.97 12.73 33.88 12.73 33.88 129.77 32.97 129.84"/><rect class="cls-1" x="52.79" y="4.45" width="0.92" height="134.21"/><polygon class="cls-1" points="91.15 138.14 91.15 4.45 92.06 4.45 92.06 138.12 91.15 138.14"/><rect class="cls-1" x="109.71" y="12.73" width="0.92" height="117.12"/><rect class="cls-1" x="102.46" y="71" width="38.65" height="0.92"/><rect class="cls-1" x="1.83" y="71" width="42.04" height="0.92"/><rect class="cls-1" x="43.87" y="69.63" width="58.59" height="3.66"/></g></g></g></g></g></svg>