<svg xmlns="http://www.w3.org/2000/svg" viewBox="0 0 84.96 84.96"><defs><style>.cls-1{fill:#5cc8ff;}</style></defs><g id="Layer_2" data-name="Layer 2"><g id="Layer_1-2" data-name="Layer 1"><g id="Layer_2-2" data-name="Layer 2"><g id="Layer_1-2-2" data-name="Layer 1-2"><path class="cls-1" d="M42.48,85A42.48,42.48,0,1,1,85,42.48,42.53,42.53,0,0,1,42.48,85Zm0-84A41.48,41.48,0,1,0,84,42.48,41.53,41.53,0,0,0,42.48,1Z"/></g></g><path class="cls-1" d="M56.48,24.8H48.12a6,6,0,0,0-11.28,0H28.48a4,4,0,0,0-4,4v28a4,4,0,0,0,4,4h28a4,4,0,0,0,4-4v-28A4,4,0,0,0,56.48,24.8Zm-14,0a2,2,0,1,1-2,2A2,2,0,0,1,42.48,24.8Zm4,28h-14v-4h14Zm6-8h-20v-4h20Zm0-8h-20v-4h20Z"/></g></g></svg>