<?xml version="1.0" encoding="utf-8"?>
<!-- Generator: Adobe Illustrator 25.0.1, SVG Export Plug-In . SVG Version: 6.00 Build 0)  -->
<svg version="1.1" id="Layer_1" xmlns="http://www.w3.org/2000/svg" xmlns:xlink="http://www.w3.org/1999/xlink" x="0px" y="0px"
	 viewBox="0 0 85 85" style="enable-background:new 0 0 85 85;" xml:space="preserve">
<style type="text/css">
	.st0{fill:#99C24D;}
</style>
<g id="Layer_2_1_">
	<g id="Layer_1-2">
		<g>
			<path class="st0" d="M42.5,85C19.1,85,0,65.9,0,42.5S19.1,0,42.5,0S85,19.1,85,42.5S65.9,85,42.5,85z M42.5,1
				C19.6,1,1,19.6,1,42.5C1,65.4,19.6,84,42.5,84C65.4,84,84,65.4,84,42.5C84,19.6,65.4,1,42.5,1z"/>
		</g>
		<path class="st0" d="M58,24.5H26c-2.2,0-4,1.8-4,4v36l8-8h28c2.2,0,4-1.8,4-4v-24C62,26.3,60.2,24.5,58,24.5z M58,52.5H30l-4,4
			v-28h32V52.5z"/>
	</g>
</g>
</svg>
