<?xml version="1.0" encoding="utf-8"?>
<!-- Generator: Adobe Illustrator 25.1.0, SVG Export Plug-In . SVG Version: 6.00 Build 0)  -->
<svg version="1.1" id="Layer_1" xmlns="http://www.w3.org/2000/svg" xmlns:xlink="http://www.w3.org/1999/xlink" x="0px" y="0px"
	 viewBox="0 0 85 85" style="enable-background:new 0 0 85 85;" xml:space="preserve">
<style type="text/css">
	.st0{fill:#99C24D;}
</style>
<g id="Layer_2_1_">
	<g id="Layer_1-2">
		<g id="Layer_2-2">
			<g id="Layer_1-2-2">
				<path class="st0" d="M42.5,85C19,85,0,65.9,0,42.5S19.1,0,42.6,0C66,0.1,85,19.1,85,42.5C85,65.9,66,85,42.5,85
					C42.5,85,42.5,85,42.5,85z M42.5,1C19.6,1,1,19.6,1,42.5S19.7,84,42.6,84C65.5,83.9,84,65.4,84,42.5C84,19.6,65.4,1,42.5,1
					C42.5,1,42.5,1,42.5,1z"/>
			</g>
		</g>
		<path class="st0" d="M42,54.6c0-7.7,6.3-14,14-14c2.1,0,4.1,0.5,6,1.4V28.6c0-2.2-1.8-4-4-4H26c-2.2,0-4,1.8-4,4v24
			c0,2.2,1.8,4,4,4h16.2C42.1,56,42,55.3,42,54.6z M26,28.6l16,10l16-10v4l-16,10l-16-10V28.6z M52.7,60.6l-7.1-7.1l2.8-2.8l4.2,4.3
			l8.5-8.5l2.9,2.8L52.7,60.6z"/>
	</g>
</g>
</svg>
