<?xml version="1.0" encoding="utf-8"?>
<!-- Generator: Adobe Illustrator 25.0.1, SVG Export Plug-In . SVG Version: 6.00 Build 0)  -->
<svg version="1.1" id="Layer_1" xmlns="http://www.w3.org/2000/svg" xmlns:xlink="http://www.w3.org/1999/xlink" x="0px" y="0px"
	 viewBox="0 0 85 85" style="enable-background:new 0 0 85 85;" xml:space="preserve">
<style type="text/css">
	.st0{fill:#F5CB5C;}
</style>
<g id="Layer_2_1_">
	<g id="Layer_1-2">
		<g>
			<path class="st0" d="M42.5,85C19.1,85,0,65.9,0,42.5S19.1,0,42.5,0S85,19.1,85,42.5S65.9,85,42.5,85z M42.5,1
				C19.6,1,1,19.6,1,42.5C1,65.4,19.6,84,42.5,84C65.4,84,84,65.4,84,42.5C84,19.6,65.4,1,42.5,1z"/>
		</g>
		<path class="st0" d="M53.1,22.7c-4.3,0-8.3,1.9-11.1,5.1c-2.8-3.2-6.8-5.1-11.1-5.1c-7.4-0.1-13.5,5.9-13.6,13.3
			c0,0.1,0,0.2,0,0.3c0,9.3,8.4,16.9,21.1,28.5L42,68l3.6-3.3c12.7-11.5,21.1-19.1,21.1-28.4c0.1-7.4-5.8-13.5-13.2-13.6
			C53.3,22.7,53.2,22.7,53.1,22.7z M42.3,61L42,61.2L41.8,61C30,50.4,22.3,43.4,22.3,36.3c-0.1-4.6,3.6-8.5,8.2-8.6
			c0.1,0,0.3,0,0.4,0c3.8,0,7.3,2.3,8.8,5.8h4.6c1.5-3.5,5-5.8,8.8-5.8c4.7-0.1,8.5,3.6,8.6,8.2c0,0.1,0,0.3,0,0.4
			C61.8,43.4,54,50.4,42.3,61z"/>
	</g>
</g>
</svg>
