<?xml version="1.0" encoding="utf-8"?>
<!-- Generator: Adobe Illustrator 25.0.1, SVG Export Plug-In . SVG Version: 6.00 Build 0)  -->
<svg version="1.1" id="Layer_1" xmlns="http://www.w3.org/2000/svg" xmlns:xlink="http://www.w3.org/1999/xlink" x="0px" y="0px"
	 viewBox="0 0 85 85" style="enable-background:new 0 0 85 85;" xml:space="preserve">
<style type="text/css">
	.st0{fill:#5CC8FF;}
</style>
<g id="Layer_2_1_">
	<g id="Layer_1-2">
		<g>
			<path class="st0" d="M42.5,85C19.1,85,0,65.9,0,42.5S19.1,0,42.5,0S85,19.1,85,42.5S65.9,85,42.5,85z M42.5,1
				C19.6,1,1,19.6,1,42.5C1,65.4,19.6,84,42.5,84C65.4,84,84,65.4,84,42.5C84,19.6,65.4,1,42.5,1z"/>
		</g>
		<g>
			<path class="st0" d="M76.5,57.2H62.7v-5.1c0-2.2-0.6-4.3-1.7-6.2l-0.4-0.6l0.7-0.1c3.9-0.7,7.8-0.2,11.3,1.4
				c2.3,1,3.8,3.2,3.8,5.7V57.2z M63.7,56.2h11.8v-4c0-2.1-1.3-3.9-3.2-4.7c-3.2-1.4-6.6-1.9-10.1-1.4c1,1.9,1.5,4,1.5,6.1V56.2z
				 M59.5,57.1H24.6v-5.1c0-3.5,2.1-6.7,5.3-8.2c3.8-1.7,7.9-2.6,12.1-2.6h0c4.2,0,8.3,0.9,12.2,2.6c3.2,1.4,5.3,4.6,5.3,8.2V57.1z
				 M25.6,56.1h32.9V52c0-3.1-1.8-6-4.7-7.3c-3.7-1.6-7.7-2.5-11.8-2.5c-4.1,0-8,0.9-11.7,2.5c-2.9,1.3-4.7,4.1-4.7,7.3V56.1z
				 M21.3,57.1H7.6v-4.9c0-2.5,1.5-4.7,3.8-5.7c3.5-1.6,7.4-2,11.2-1.4h0.9L23,45.9c-1.1,1.9-1.7,4-1.7,6.2V57.1z M8.6,56.1h11.7
				v-4.1c0-2.1,0.5-4.2,1.5-6.1c-3.4-0.5-6.9,0-10,1.4c-1.9,0.8-3.2,2.7-3.2,4.8V56.1z M19.4,43C19.4,43,19.4,43,19.4,43
				c-1.7,0-3.2-0.6-4.4-1.8c-1.2-1.2-1.8-2.7-1.8-4.4c0-3.4,2.8-6.2,6.2-6.2s6.2,2.8,6.2,6.2C25.5,40.2,22.8,43,19.4,43L19.4,43
				C19.4,43,19.4,43,19.4,43z M19.4,31.7c-2.8,0-5.2,2.3-5.2,5.2c0,1.4,0.5,2.7,1.5,3.7c1,1,2.3,1.5,3.6,1.5c2.8,0,5.2-2.3,5.2-5.2
				C24.5,34,22.2,31.7,19.4,31.7z M64.7,43C64.7,43,64.7,43,64.7,43L64.7,43c-3.4,0-6.2-2.8-6.2-6.2c0-1.7,0.6-3.2,1.8-4.4
				c1.2-1.2,2.7-1.8,4.3-1.8c0,0,0,0,0,0c3.4,0,6.2,2.8,6.1,6.2C70.8,40.2,68.1,43,64.7,43z M64.7,42C64.7,42,64.7,42,64.7,42
				c2.8,0,5.2-2.3,5.2-5.2c0-2.8-2.3-5.2-5.2-5.2c0,0,0,0,0,0c-2.8,0-5.2,2.3-5.2,5.2C59.5,39.7,61.8,42,64.7,42L64.7,42z M42,40.2
				c-5,0-9-4-9-9c0-5,4-9,9-9l0,0.5l0-0.5c0,0,0,0,0,0c2.4,0,4.7,0.9,6.3,2.6c1.7,1.7,2.6,4,2.6,6.4c0,2.4-0.9,4.7-2.6,6.4
				C46.7,39.2,44.4,40.2,42,40.2C42,40.2,42,40.2,42,40.2z M42,23.2c-4.4,0-8,3.6-8,8c0,4.4,3.6,8,8,8c0,0,0,0,0,0
				c2.1,0,4.1-0.8,5.6-2.3c1.5-1.5,2.3-3.5,2.3-5.7s-0.8-4.1-2.3-5.6C46.1,24,44.1,23.2,42,23.2C42,23.2,42,23.2,42,23.2L42,23.2z"
				/>
		</g>
	</g>
</g>
</svg>
