<svg xmlns="http://www.w3.org/2000/svg" viewBox="0 0 84.96 84.96"><defs><style>.cls-1{fill:#5cc8ff;}.cls-2{fill:none;}</style></defs><g id="Layer_2" data-name="Layer 2"><g id="Layer_1-2" data-name="Layer 1"><g id="Layer_2-2" data-name="Layer 2"><g id="Layer_1-2-2" data-name="Layer 1-2"><path class="cls-1" d="M42.48,85A42.48,42.48,0,1,1,85,42.48,42.53,42.53,0,0,1,42.48,85Zm0-84A41.48,41.48,0,1,0,84,42.48,41.53,41.53,0,0,0,42.48,1Z"/></g></g><rect class="cls-2" x="18" y="16.64" width="48" height="48"/><path class="cls-1" d="M42,54.64A14,14,0,0,1,62,42V28.64a4,4,0,0,0-4-4H26a4,4,0,0,0-4,4v24a4,4,0,0,0,4,4H42.16A13.27,13.27,0,0,1,42,54.64Zm-16-26,16,10,16-10v4l-16,10-16-10Zm26.68,32L45.6,53.56l2.82-2.82L52.66,55l8.48-8.48L64,49.32Z"/></g></g></svg>